<svg width="35" height="35" viewBox="0 0 35 35" fill="none" xmlns="http://www.w3.org/2000/svg">
<path fill-rule="evenodd" clip-rule="evenodd" d="M7.53338 17.5021C7.53338 16.3907 7.71798 15.3251 8.04744 14.3257L2.2806 9.92188C1.15667 12.2039 0.523438 14.7752 0.523438 17.5021C0.523438 20.2267 1.15589 22.7964 2.27826 25.0769L8.04199 20.6645C7.71564 19.6698 7.53338 18.6081 7.53338 17.5021Z" fill="#FBBC05"/>
<path fill-rule="evenodd" clip-rule="evenodd" d="M17.6595 7.39062C20.074 7.39062 22.2549 8.24618 23.9685 9.64618L28.9533 4.6684C25.9157 2.02396 22.0212 0.390625 17.6595 0.390625C10.8879 0.390625 5.06809 4.26318 2.28125 9.92151L8.0481 14.3253C9.37687 10.2917 13.1646 7.39062 17.6595 7.39062Z" fill="#EB4335"/>
<path fill-rule="evenodd" clip-rule="evenodd" d="M17.6595 27.6144C13.1646 27.6144 9.37687 24.7132 8.0481 20.6797L2.28125 25.0827C5.06809 30.7418 10.8879 34.6144 17.6595 34.6144C21.839 34.6144 25.8292 33.1304 28.824 30.3498L23.35 26.1179C21.8055 27.0909 19.8606 27.6144 17.6595 27.6144Z" fill="#34A853"/>
<path fill-rule="evenodd" clip-rule="evenodd" d="M34.0128 17.5017C34.0128 16.4906 33.857 15.4017 33.6233 14.3906H17.6562V21.0017H26.8471C26.3875 23.2557 25.1366 24.9886 23.3468 26.1164L28.8208 30.3483C31.9667 27.4285 34.0128 23.0792 34.0128 17.5017Z" fill="#4285F4"/>
</svg>
